<svg xmlns="http://www.w3.org/2000/svg" viewBox="0 0 64 64" width="64" height="64"><defs><linearGradient id="bunElec" x1="0%" y1="0%" x2="100%" y2="100%"><stop offset="0%" stop-color="#FFD700"/><stop offset="100%" stop-color="#FFA500"/></linearGradient></defs><path d="M32 10c-10 0-16 8-16 16c0 8 6 12 10 14v8h12v-8c4-2 10-6 10-14c0-8-6-16-16-16z" fill="url(#bunElec)"/><path d="M28 48h8v6h-8z" fill="#666"/><circle cx="26" cy="24" r="2" fill="#333"/><circle cx="38" cy="24" r="2" fill="#333"/><path d="M32 28l-2 2l4 0" stroke="#333" stroke-width="1"/><path d="M24 14l-4-6" stroke="#FFA500" stroke-width="2"/><path d="M40 14l4-6" stroke="#FFA500" stroke-width="2"/></svg>