<svg xmlns="http://www.w3.org/2000/svg" viewBox="0 0 64 64" width="64" height="64"><defs><linearGradient id="bunGame" x1="0%" y1="0%" x2="100%" y2="100%"><stop offset="0%" stop-color="#E6E6FA"/><stop offset="100%" stop-color="#9370DB"/></linearGradient></defs><path d="M8 24c0-6 4-10 10-10h28c6 0 10 4 10 10v16c0 6-4 10-10 10h-28c-6 0-10-4-10-10z" fill="url(#bunGame)"/><path d="M18 14l-4-6" stroke="#9370DB" stroke-width="3"/><path d="M46 14l4-6" stroke="#9370DB" stroke-width="3"/><path d="M18 28v8M14 32h8" stroke="white" stroke-width="3" stroke-linecap="round"/><circle cx="46" cy="32" r="3" fill="#FFB6C1"/><circle cx="38" cy="26" r="3" fill="#FFD700"/><circle cx="38" cy="38" r="3" fill="#98FB98"/><circle cx="54" cy="32" r="3" fill="#87CEEB"/></svg>