<svg xmlns="http://www.w3.org/2000/svg" viewBox="0 0 64 64" width="64" height="64"><defs><linearGradient id="uwuMsg" x1="0%" y1="0%" x2="100%" y2="100%"><stop offset="0%" stop-color="#E0FFFF"/><stop offset="100%" stop-color="#87CEEB"/></linearGradient></defs><path d="M12 32c0-10 8-18 20-18s20 8 20 18c0 10-8 18-20 18c-4 0-8-1-10-3l-8 4l2-8c-2-4-4-8-4-13z" fill="url(#uwuMsg)"/><path d="M22 24l-4-8" stroke="#87CEEB" stroke-width="3" stroke-linecap="round"/><path d="M42 24l4-8" stroke="#87CEEB" stroke-width="3" stroke-linecap="round"/><circle cx="26" cy="32" r="2" fill="#333"/><circle cx="38" cy="32" r="2" fill="#333"/><path d="M30 32l2 2l2-2" stroke="#333" stroke-width="1.5" fill="none"/><circle cx="22" cy="36" r="2" fill="#FFB6C1" opacity="0.6"/><circle cx="42" cy="36" r="2" fill="#FFB6C1" opacity="0.6"/></svg>