<svg xmlns="http://www.w3.org/2000/svg" viewBox="0 0 64 64" width="64" height="64"><defs><linearGradient id="bunPhone" x1="0%" y1="0%" x2="100%" y2="100%"><stop offset="0%" stop-color="#FFC0CB"/><stop offset="100%" stop-color="#FF69B4"/></linearGradient></defs><path d="M16 4h8c2 0 4 4 4 10s-2 10-4 10s-4-4-4-10s2-10 4-10" fill="#FFC0CB"/><path d="M40 4h8c2 0 4 4 4 10s-2 10-4 10s-4-4-4-10s2-10 4-10" fill="#FFC0CB"/><rect x="14" y="14" width="36" height="46" rx="12" fill="url(#bunPhone)"/><rect x="18" y="20" width="28" height="28" rx="4" fill="#FFF0F5"/><circle cx="26" cy="34" r="2" fill="#333"/><circle cx="38" cy="34" r="2" fill="#333"/><path d="M30 36q2 2 4 0" stroke="#333" stroke-width="1" fill="none"/><circle cx="32" cy="54" r="3" fill="white" opacity="0.8"/></svg>