<svg xmlns="http://www.w3.org/2000/svg" viewBox="0 0 64 64" width="64" height="64"><defs><linearGradient id="bunCop" x1="0%" y1="0%" x2="100%" y2="100%"><stop offset="0%" stop-color="#87CEFA"/><stop offset="100%" stop-color="#4169E1"/></linearGradient></defs><path d="M16 28l-2-12" stroke="#4169E1" stroke-width="3" stroke-linecap="round"/><path d="M48 28l2-12" stroke="#4169E1" stroke-width="3" stroke-linecap="round"/><path d="M12 36h40v16a4 4 0 0 1-4 4h-32a4 4 0 0 1-4-4z" fill="url(#bunCop)"/><path d="M16 36l4-14h24l4 14z" fill="white" opacity="0.9"/><rect x="26" y="18" width="12" height="4" rx="2" fill="#FFD700"/><circle cx="20" cy="30" r="3" fill="#FF0000"/><circle cx="44" cy="30" r="3" fill="#0000FF"/><circle cx="24" cy="44" r="2" fill="#333"/><circle cx="40" cy="44" r="2" fill="#333"/><path d="M32 46l-2 2l4 0" stroke="#333" stroke-width="1"/></svg>