<svg xmlns="http://www.w3.org/2000/svg" viewBox="0 0 64 64" width="64" height="64"><defs><linearGradient id="bunWea" x1="0%" y1="0%" x2="100%" y2="100%"><stop offset="0%" stop-color="#87CEEB"/><stop offset="100%" stop-color="#4682B4"/></linearGradient></defs><rect x="4" y="4" width="56" height="56" rx="16" fill="url(#bunWea)"/><circle cx="48" cy="20" r="10" fill="#FFD700"/><path d="M12 38c0-6 4-10 10-10c3 0 6 2 8 4c2-4 6-6 10-6c7 0 12 5 12 12h-40z" fill="white" opacity="0.9"/><circle cx="22" cy="36" r="1.5" fill="#333"/><circle cx="34" cy="36" r="1.5" fill="#333"/><path d="M28 38q2 2 4 0" stroke="#333" stroke-width="1" fill="none"/><path d="M18 28l-2-4" stroke="white" stroke-width="2"/><path d="M38 28l2-4" stroke="white" stroke-width="2"/></svg>