<svg xmlns="http://www.w3.org/2000/svg" viewBox="0 0 64 64" width="64" height="64">
  <defs>
    <linearGradient id="mapGrad" x1="0%" y1="0%" x2="100%" y2="100%">
      <stop offset="0%" style="stop-color:#FFDAB9;stop-opacity:1" />
      <stop offset="100%" style="stop-color:#FFA07A;stop-opacity:1" />
    </linearGradient>
  </defs>
  <rect x="4" y="4" width="56" height="56" rx="16" fill="url(#mapGrad)"/>
  <path d="M18 16l10 4 10-4 10 4v32l-10-4-10 4-10-4V16z" fill="white" opacity="0.95"/>
  <path d="M28 20v32M48 20v32" stroke="#FFA07A" stroke-width="2" opacity="0.4"/>
  <path d="M32 14c-4 0-7 3-7 7 0 5 7 12 7 12s7-7 7-12c0-4-3-7-7-7z" fill="#FF6B6B"/>
  <circle cx="32" cy="21" r="3" fill="white"/>
  <path d="M20 28h4M20 36h4M36 28h4" stroke="#FFA07A" stroke-width="2" stroke-linecap="round" opacity="0.6"/>
</svg>