<svg xmlns="http://www.w3.org/2000/svg" viewBox="0 0 64 64" width="64" height="64">
  <defs>
    <linearGradient id="foodGrad" x1="0%" y1="0%" x2="100%" y2="100%">
      <stop offset="0%" style="stop-color:#FFA07A;stop-opacity:1" />
      <stop offset="100%" style="stop-color:#FF6347;stop-opacity:1" />
    </linearGradient>
  </defs>
  <rect x="4" y="4" width="56" height="56" rx="16" fill="url(#foodGrad)"/>
  <ellipse cx="32" cy="36" rx="16" ry="10" fill="white" opacity="0.95"/>
  <ellipse cx="32" cy="33" rx="14" ry="8" fill="#FF6347" opacity="0.3"/>
  <path d="M24 28c0-4 3-8 8-8s8 4 8 8" fill="#98FB98" opacity="0.6"/>
  <circle cx="28" cy="36" r="2.5" fill="#FF6B6B"/>
  <circle cx="36" cy="36" r="2.5" fill="#FFD700"/>
  <circle cx="32" cy="32" r="2" fill="#FF6B6B"/>
  <path d="M20 36c0-4 2-6 4-6s4 2 4 6" fill="#FFE4B5" opacity="0.8"/>
  <path d="M36 36c0-4 2-6 4-6s4 2 4 6" fill="#FFE4B5" opacity="0.8"/>
  <path d="M28 20c0-2 2-4 4-4s4 2 4 4" stroke="#98FB98" stroke-width="3" fill="none" stroke-linecap="round"/>
</svg>