<svg xmlns="http://www.w3.org/2000/svg" viewBox="0 0 64 64" width="64" height="64">
  <defs>
    <linearGradient id="galleryGrad" x1="0%" y1="0%" x2="100%" y2="100%">
      <stop offset="0%" style="stop-color:#FFE4E1;stop-opacity:1" />
      <stop offset="100%" style="stop-color:#FFB6C1;stop-opacity:1" />
    </linearGradient>
  </defs>
  <rect x="4" y="4" width="56" height="56" rx="16" fill="url(#galleryGrad)"/>
  <rect x="10" y="14" width="22" height="18" rx="4" fill="white" opacity="0.95"/>
  <rect x="32" y="14" width="22" height="18" rx="4" fill="white" opacity="0.8"/>
  <rect x="10" y="36" width="22" height="18" rx="4" fill="white" opacity="0.8"/>
  <rect x="32" y="36" width="22" height="18" rx="4" fill="white" opacity="0.95"/>
  <circle cx="18" cy="22" r="3" fill="#FFB6C1"/>
  <circle cx="40" cy="22" r="2.5" fill="#98FB98"/>
  <circle cx="18" cy="44" r="2.5" fill="#87CEEB"/>
  <circle cx="40" cy="44" r="3" fill="#FFE66D"/>
  <path d="M14 26l4-4 4 4M36 26l3-3 3 3M14 48l3-3 3 3M36 48l4-4 4 4" stroke="white" stroke-width="1.5" opacity="0.7"/>
</svg>