<svg xmlns="http://www.w3.org/2000/svg" viewBox="0 0 64 64" width="64" height="64">
  <defs>
    <linearGradient id="gangGrad" x1="0%" y1="0%" x2="100%" y2="100%">
      <stop offset="0%" style="stop-color:#FF4500;stop-opacity:1" />
      <stop offset="100%" style="stop-color:#DC143C;stop-opacity:1" />
    </linearGradient>
  </defs>
  <rect x="4" y="4" width="56" height="56" rx="16" fill="url(#gangGrad)"/>
  <path d="M18 42c0-10 6-20 14-24 8 4 14 14 14 24H18z" fill="white" opacity="0.95"/>
  <path d="M28 26c0-4 2-6 4-6s4 2 4 6" fill="#FF4500" opacity="0.5"/>
  <path d="M24 36h16M26 40h12M28 44h8" stroke="#DC143C" stroke-width="2" stroke-linecap="round" opacity="0.6"/>
  <circle cx="24" cy="46" r="3" fill="#FFD700"/>
  <circle cx="40" cy="46" r="3" fill="#FFD700"/>
  <path d="M32 14c-2 0-4 2-4 4 0 2 1.5 3 4 5 2.5-2 4-3 4-5 0-2-2-4-4-4z" fill="#FFD700"/>
</svg>