<svg xmlns="http://www.w3.org/2000/svg" viewBox="0 0 64 64" width="64" height="64">
  <defs>
    <linearGradient id="gpsGrad" x1="0%" y1="0%" x2="100%" y2="100%">
      <stop offset="0%" style="stop-color:#FF6B6B;stop-opacity:1" />
      <stop offset="100%" style="stop-color:#FF8E8E;stop-opacity:1" />
    </linearGradient>
  </defs>
  <rect x="4" y="4" width="56" height="56" rx="16" fill="url(#gpsGrad)"/>
  <circle cx="32" cy="26" r="14" fill="white" opacity="0.2"/>
  <circle cx="32" cy="26" r="10" fill="white" opacity="0.3"/>
  <circle cx="32" cy="26" r="6" fill="white" opacity="0.5"/>
  <path d="M32 10c-8 0-14 6-14 14 0 10 14 26 14 26s14-16 14-26c0-8-6-14-14-14z" fill="#FF6B6B"/>
  <circle cx="32" cy="24" r="5" fill="white"/>
  <circle cx="32" cy="24" r="3" fill="#FF6B6B"/>
  <path d="M32 6v4M32 38v4M8 24h4M52 24h4" stroke="white" stroke-width="2" stroke-linecap="round" opacity="0.5"/>
</svg>