<svg xmlns="http://www.w3.org/2000/svg" viewBox="0 0 64 64" width="64" height="64">
  <defs>
    <linearGradient id="msgGrad" x1="0%" y1="0%" x2="100%" y2="100%">
      <stop offset="0%" style="stop-color:#87CEEB;stop-opacity:1" />
      <stop offset="100%" style="stop-color:#5BC0DE;stop-opacity:1" />
    </linearGradient>
  </defs>
  <rect x="4" y="4" width="56" height="56" rx="16" fill="url(#msgGrad)"/>
  <path d="M14 20h36a4 4 0 014 4v24a4 4 0 01-4 4H14a4 4 0 01-4-4V24a4 4 0 014-4z" fill="white" opacity="0.95"/>
  <path d="M18 24h28M18 30h20M18 36h24" stroke="#5BC0DE" stroke-width="2.5" stroke-linecap="round"/>
  <circle cx="48" cy="42" r="3" fill="#FFB6C1"/>
  <circle cx="42" cy="42" r="3" fill="#98FB98"/>
  <path d="M16 44l4 4-4 2" fill="#5BC0DE" opacity="0.6"/>
</svg>