<svg xmlns="http://www.w3.org/2000/svg" viewBox="0 0 64 64" width="64" height="64">
  <defs>
    <linearGradient id="phoneGrad" x1="0%" y1="0%" x2="100%" y2="100%">
      <stop offset="0%" style="stop-color:#FFB6C1;stop-opacity:1" />
      <stop offset="100%" style="stop-color:#FF69B4;stop-opacity:1" />
    </linearGradient>
    <filter id="softShadow" x="-20%" y="-20%" width="140%" height="140%">
      <feDropShadow dx="0" dy="2" stdDeviation="3" flood-color="#FF69B4" flood-opacity="0.3"/>
    </filter>
  </defs>
  <rect x="4" y="4" width="56" height="56" rx="16" fill="url(#phoneGrad)" filter="url(#softShadow)"/>
  <path d="M24 22c0-1 1-2 2-2h12c1 0 2 1 2 2v20c0 1-1 2-2 2H26c-1 0-2-1-2-2V22z" fill="white" opacity="0.9"/>
  <path d="M28 26h8M28 32h8M28 38h5" stroke="#FF69B4" stroke-width="2" stroke-linecap="round" opacity="0.8"/>
  <circle cx="36" cy="38" r="2" fill="#FF1493"/>
  <path d="M20 28c-3 2-3 8 0 12l4-2c-2-3-2-5 0-8l-4-2z" fill="white" opacity="0.7"/>
  <path d="M44 28c3 2 3 8 0 12l-4-2c2-3 2-5 0-8l4-2z" fill="white" opacity="0.7"/>
</svg>