<svg xmlns="http://www.w3.org/2000/svg" viewBox="0 0 64 64" width="64" height="64">
  <defs>
    <linearGradient id="weatherGrad" x1="0%" y1="0%" x2="100%" y2="100%">
      <stop offset="0%" style="stop-color:#87CEEB;stop-opacity:1" />
      <stop offset="100%" style="stop-color:#B0E0E6;stop-opacity:1" />
    </linearGradient>
  </defs>
  <rect x="4" y="4" width="56" height="56" rx="16" fill="url(#weatherGrad)"/>
  <circle cx="42" cy="24" r="10" fill="#FFD700" opacity="0.9"/>
  <circle cx="42" cy="24" r="8" fill="#FFEB3B"/>
  <path d="M20 36h28a8 8 0 008-8 8 8 0 00-8-8 10 10 0 00-18 4 8 8 0 00-2 0 8 8 0 00-8 8 8 8 0 008 8z" fill="white" opacity="0.95"/>
  <path d="M16 42h32a6 6 0 006-6 6 6 0 00-6-6 8 8 0 00-14 3 6 6 0 00-1.5 0 6 6 0 00-6 6 6 6 0 006 6z" fill="white" opacity="0.7"/>
  <path d="M24 48h20a4 4 0 004-4 4 4 0 00-4-4 6 6 0 00-10 2 4 4 0 00-1 0 4 4 0 00-4 4 4 4 0 004 4z" fill="white" opacity="0.5"/>
</svg>