<svg xmlns="http://www.w3.org/2000/svg" viewBox="0 0 64 64" width="64" height="64">
  <defs>
    <linearGradient id="driftGrad" x1="0%" y1="0%" x2="100%" y2="100%">
      <stop offset="0%" style="stop-color:#FF6B35"/>
      <stop offset="100%" style="stop-color:#FF2D7A"/>
    </linearGradient>
  </defs>
  <rect x="4" y="4" width="56" height="56" rx="14" fill="url(#driftGrad)" opacity="0.15"/>
  <rect x="4" y="4" width="56" height="56" rx="14" fill="none" stroke="url(#driftGrad)" stroke-width="2"/>
  
  <!-- Book/Contact book -->
  <path d="M14 12h36a4 4 0 014 4v32a4 4 0 01-4 4H14a4 4 0 01-4-4V16a4 4 0 014-4z" 
        fill="none" stroke="url(#driftGrad)" stroke-width="2.5"/>
  
  <!-- Spine line -->
  <path d="M22 12v40" stroke="url(#driftGrad)" stroke-width="2" opacity="0.5"/>
  
  <!-- Person icon -->
  <circle cx="34" cy="24" r="5" fill="none" stroke="url(#driftGrad)" stroke-width="2"/>
  <path d="M26 38c0-6 4-10 10-10s10 4 10 10" fill="none" stroke="url(#driftGrad)" stroke-width="2" stroke-linecap="round"/>
  
  <!-- Speed marks -->
  <path d="M50 14l4-2M50 18l4 0" stroke="url(#driftGrad)" stroke-width="1.5" opacity="0.5" stroke-linecap="round"/>
</svg>