<svg xmlns="http://www.w3.org/2000/svg" viewBox="0 0 64 64" width="64" height="64">
  <defs>
    <linearGradient id="driftGrad" x1="0%" y1="0%" x2="100%" y2="100%">
      <stop offset="0%" style="stop-color:#FF6B35"/>
      <stop offset="100%" style="stop-color:#FF2D7A"/>
    </linearGradient>
  </defs>
  <rect x="4" y="4" width="56" height="56" rx="14" fill="url(#driftGrad)" opacity="0.15"/>
  <rect x="4" y="4" width="56" height="56" rx="14" fill="none" stroke="url(#driftGrad)" stroke-width="2"/>
  
  <!-- Fork -->
  <path d="M24 12v8a4 4 0 004 4v24a2 2 0 01-4 0V24a4 4 0 00-4-4v-8h4z" 
        fill="none" stroke="url(#driftGrad)" stroke-width="2.5"/>
  <path d="M20 12v4M24 12v4M28 12v4" stroke="url(#driftGrad)" stroke-width="2" stroke-linecap="round"/>
  
  <!-- Knife -->
  <path d="M44 12v44a2 2 0 01-4 0V28h-4V12h8z" fill="none" stroke="url(#driftGrad)" stroke-width="2.5"/>
</svg>