<svg xmlns="http://www.w3.org/2000/svg" viewBox="0 0 64 64" width="64" height="64">
  <defs>
    <linearGradient id="driftGrad" x1="0%" y1="0%" x2="100%" y2="100%">
      <stop offset="0%" style="stop-color:#FF6B35"/>
      <stop offset="100%" style="stop-color:#FF2D7A"/>
    </linearGradient>
  </defs>
  <rect x="4" y="4" width="56" height="56" rx="14" fill="url(#driftGrad)" opacity="0.15"/>
  <rect x="4" y="4" width="56" height="56" rx="14" fill="none" stroke="url(#driftGrad)" stroke-width="2"/>
  
  <!-- Message bubble -->
  <path d="M16 20h32a4 4 0 014 4v20a4 4 0 01-4 4H28l-8 6v-6h-4a4 4 0 01-4-4V24a4 4 0 014-4z" 
        fill="none" stroke="url(#driftGrad)" stroke-width="2.5" stroke-linejoin="round"/>
  
  <!-- Lines inside -->
  <path d="M22 30h20M22 36h14" stroke="url(#driftGrad)" stroke-width="2" stroke-linecap="round" opacity="0.8"/>
  
  <!-- Speed indicator -->
  <path d="M46 16l6-3M48 20l6-1" stroke="url(#driftGrad)" stroke-width="1.5" opacity="0.6" stroke-linecap="round"/>
</svg>