<svg xmlns="http://www.w3.org/2000/svg" viewBox="0 0 64 64" width="64" height="64">
  <defs>
    <linearGradient id="driftGrad" x1="0%" y1="0%" x2="100%" y2="100%">
      <stop offset="0%" style="stop-color:#FF6B35"/>
      <stop offset="100%" style="stop-color:#FF2D7A"/>
    </linearGradient>
  </defs>
  <rect x="4" y="4" width="56" height="56" rx="14" fill="url(#driftGrad)" opacity="0.15"/>
  <rect x="4" y="4" width="56" height="56" rx="14" fill="none" stroke="url(#driftGrad)" stroke-width="2"/>
  
  <!-- Shield outline -->
  <path d="M32 8l18 8v14c0 12-8 20-18 24-10-4-18-12-18-24V16l18-8z" 
        fill="none" stroke="url(#driftGrad)" stroke-width="2.5" stroke-linejoin="round"/>
  
  <!-- Star badge -->
  <path d="M32 20l2 6h6l-5 4 2 6-5-4-5 4 2-6-5-4h6l2-6z" 
        fill="url(#driftGrad)" opacity="0.8"/>
  
  <!-- Police text hint -->
  <rect x="24" y="42" width="16" height="6" rx="1" fill="none" stroke="url(#driftGrad)" stroke-width="1.5"/>
</svg>