<svg xmlns="http://www.w3.org/2000/svg" viewBox="0 0 64 64" width="64" height="64"><defs><linearGradient id="phoneBody" x1="0%" y1="0%" x2="100%" y2="100%"><stop offset="0%" stop-color="#FFB6C1"/><stop offset="100%" stop-color="#FF69B4"/></linearGradient><linearGradient id="screen" x1="0%" y1="0%" x2="100%" y2="100%"><stop offset="0%" stop-color="#FFF0F5"/><stop offset="100%" stop-color="#FFE4E1"/></linearGradient></defs><rect x="12" y="8" width="40" height="48" rx="12" fill="url(#phoneBody)"/><rect x="16" y="14" width="32" height="30" rx="4" fill="url(#screen)"/><circle cx="32" cy="50" r="3" fill="white" opacity="0.8"/><path d="M26 24c0 0 2-2 6-2s6 2 6 2s-2 6-6 6s-6-6-6-6" fill="#FF69B4" opacity="0.8"/><path d="M12 8h40a12 12 0 0 1 12 12v-6a12 12 0 0 0-12-12h-40a12 12 0 0 0-12 12v6a12 12 0 0 1 12-12z" fill="white" opacity="0.3"/></svg>